<?xml version="1.0" encoding="iso-8859-1"?>
<!-- Generator: Adobe Illustrator 19.0.0, SVG Export Plug-In . SVG Version: 6.00 Build 0)  -->
<svg version="1.1" id="Capa_1" xmlns="http://www.w3.org/2000/svg" xmlns:xlink="http://www.w3.org/1999/xlink" x="0px" y="0px"
	 viewBox="0 0 487.622 487.622" style="enable-background:new 0 0 487.622 487.622;" xml:space="preserve">
<g>
	<g>
		<circle style="fill:#EED26A;" cx="243.811" cy="243.811" r="243.811"/>
		<circle style="fill:#65B3AD;" cx="243.811" cy="243.811" r="243.811"/>
		<path style="opacity:0.37;fill:#56A49E;enable-background:new    ;" d="M487.014,260.943L351.993,129.749H225.118L108.18,246.228
			l222.796,225.328C417.498,438.421,480.315,357.415,487.014,260.943z"/>
		<g>
			<circle style="fill:#FFFFFF;" cx="122.223" cy="246.227" r="14.044"/>
			<path style="fill:#FFFFFF;" d="M175.608,206.887c7.758,0,14.047-6.29,14.047-14.046c0-7.757-6.289-14.043-14.047-14.043
				c-7.752,0-14.043,6.286-14.043,14.043C161.565,200.597,167.856,206.887,175.608,206.887z"/>
			<circle style="fill:#FFFFFF;" cx="231.315" cy="192.842" r="14.044"/>
			<circle style="fill:#FFFFFF;" cx="287.018" cy="192.842" r="14.044"/>
			<path style="fill:#FFFFFF;" d="M342.721,206.887c7.76,0,14.045-6.29,14.045-14.046c0-7.757-6.285-14.043-14.045-14.043
				c-7.754,0-14.043,6.286-14.043,14.043C328.678,200.597,334.967,206.887,342.721,206.887z"/>
			<circle style="fill:#FFFFFF;" cx="231.315" cy="135.566" r="14.043"/>
			<circle style="fill:#FFFFFF;" cx="287.018" cy="135.566" r="14.043"/>
			<path style="fill:#FFFFFF;" d="M342.721,149.609c7.76,0,14.045-6.287,14.045-14.043s-6.285-14.043-14.045-14.043
				c-7.754,0-14.043,6.287-14.043,14.043S334.967,149.609,342.721,149.609z"/>
			<circle style="fill:#FFFFFF;" cx="176.358" cy="300.361" r="14.045"/>
			<circle style="fill:#FFFFFF;" cx="231.315" cy="300.361" r="14.045"/>
			<path style="fill:#FFFFFF;" d="M286.268,286.316c-7.754,0-14.043,6.289-14.043,14.045c0,7.756,6.289,14.045,14.043,14.045
				c7.76,0,14.049-6.289,14.049-14.045C300.317,292.605,294.028,286.316,286.268,286.316z"/>
			<circle style="fill:#FFFFFF;" cx="341.225" cy="300.361" r="14.045"/>
			<circle style="fill:#FFFFFF;" cx="231.315" cy="353.122" r="14.046"/>
			<path style="fill:#FFFFFF;" d="M286.268,339.076c-7.754,0-14.043,6.291-14.043,14.047c0,7.758,6.289,14.045,14.043,14.045
				c7.76,0,14.049-6.287,14.049-14.045C300.317,345.367,294.028,339.076,286.268,339.076z"/>
			<circle style="fill:#FFFFFF;" cx="341.225" cy="353.122" r="14.046"/>
			<circle style="fill:#FFFFFF;" cx="176.77" cy="246.227" r="14.044"/>
			<circle style="fill:#FFFFFF;" cx="231.315" cy="246.227" r="14.044"/>
			<path style="fill:#FFFFFF;" d="M285.858,260.271c7.758,0,14.049-6.287,14.049-14.043c0-7.758-6.291-14.045-14.049-14.045
				c-7.754,0-14.043,6.287-14.043,14.045C271.815,253.984,278.104,260.271,285.858,260.271z"/>
			<path style="fill:#FFFFFF;" d="M340.403,260.271c7.76,0,14.047-6.287,14.047-14.043c0-7.758-6.287-14.045-14.047-14.045
				c-7.754,0-14.043,6.287-14.043,14.045C326.36,253.984,332.649,260.271,340.403,260.271z"/>
		</g>
	</g>
</g>
<g>
</g>
<g>
</g>
<g>
</g>
<g>
</g>
<g>
</g>
<g>
</g>
<g>
</g>
<g>
</g>
<g>
</g>
<g>
</g>
<g>
</g>
<g>
</g>
<g>
</g>
<g>
</g>
<g>
</g>
</svg>
