<?xml version="1.0" encoding="iso-8859-1"?>
<!-- Generator: Adobe Illustrator 19.0.0, SVG Export Plug-In . SVG Version: 6.00 Build 0)  -->
<svg version="1.1" id="Capa_1" xmlns="http://www.w3.org/2000/svg" xmlns:xlink="http://www.w3.org/1999/xlink" x="0px" y="0px"
	 viewBox="0 0 487.622 487.622" style="enable-background:new 0 0 487.622 487.622;" xml:space="preserve">
<g>
	<g>
		<circle style="fill:#3C556B;" cx="243.811" cy="243.811" r="243.811"/>
		<path style="opacity:0.37;fill:#2D465C;enable-background:new    ;" d="M487.622,243.811c0-10.555-0.672-20.953-1.973-31.154
			L364.019,93.248l-43.018,43.018l-36.666-43.018L112.263,265.32l206.079,210.681C416.537,444.504,487.622,352.464,487.622,243.811z
			"/>
		<g>
			<rect x="321.001" y="93.248" style="fill:#FFFFFF;" width="43.018" height="43.018"/>
			<polygon style="fill:#FFFFFF;" points="191.947,222.302 155.282,222.302 155.282,179.284 198.3,179.284 198.3,222.302 
				234.964,222.302 234.964,265.32 198.3,265.32 198.3,308.338 155.282,308.338 155.282,265.32 191.947,265.32 			"/>
			<polygon style="fill:#FFFFFF;" points="234.964,265.32 277.983,265.32 277.983,308.338 241.318,308.338 241.318,351.357 
				198.3,351.357 198.3,308.338 234.964,308.338 			"/>
			<polygon style="fill:#FFFFFF;" points="277.983,308.338 321.001,308.338 321.001,351.357 284.335,351.357 284.335,394.374 
				241.318,394.374 241.318,351.357 277.983,351.357 			"/>
			<rect x="321.001" y="351.357" style="fill:#FFFFFF;" width="43.018" height="43.018"/>
			<polygon style="fill:#FFFFFF;" points="241.318,136.265 241.318,93.248 284.335,93.248 284.335,136.265 321.001,136.265 
				321.001,179.284 277.983,179.284 277.983,136.265 			"/>
			<polygon style="fill:#FFFFFF;" points="198.3,179.284 198.3,136.265 241.318,136.265 241.318,179.284 277.983,179.284 
				277.983,222.302 234.964,222.302 234.964,179.284 			"/>
			<rect x="112.263" y="222.302" style="fill:#FFFFFF;" width="43.019" height="43.018"/>
		</g>
	</g>
</g>
<g>
</g>
<g>
</g>
<g>
</g>
<g>
</g>
<g>
</g>
<g>
</g>
<g>
</g>
<g>
</g>
<g>
</g>
<g>
</g>
<g>
</g>
<g>
</g>
<g>
</g>
<g>
</g>
<g>
</g>
</svg>
