<?xml version="1.0" encoding="iso-8859-1"?>
<!-- Generator: Adobe Illustrator 19.0.0, SVG Export Plug-In . SVG Version: 6.00 Build 0)  -->
<svg version="1.1" id="Capa_1" xmlns="http://www.w3.org/2000/svg" xmlns:xlink="http://www.w3.org/1999/xlink" x="0px" y="0px"
	 viewBox="0 0 487.622 487.622" style="enable-background:new 0 0 487.622 487.622;" xml:space="preserve">
<g>
	<g>
		<circle style="fill:#EED26A;" cx="243.811" cy="243.811" r="243.811"/>
		<circle style="fill:#C4E15E;" cx="243.811" cy="243.811" r="243.811"/>
		<path style="opacity:0.37;fill:#B5D24F;enable-background:new    ;" d="M487.526,250.514l-83.989-59.168H261.012l0,0h11.8h12.993
			h29.006l-80.243-63.601L84.085,243.81l278.8,212.785C435.487,415.879,485.135,339.096,487.526,250.514z"/>
		<g>
			<polygon style="fill:#FFFFFF;" points="200.981,333.97 167.36,308.04 234.568,308.04 234.568,333.97 			"/>
			<polygon style="fill:#FFFFFF;" points="403.537,269.142 403.537,295.074 150.549,295.074 116.929,269.142 			"/>
			<polygon style="fill:#FFFFFF;" points="403.537,256.174 100.118,256.174 84.085,243.81 101.672,230.245 403.537,230.245 			"/>
			<polygon style="fill:#FFFFFF;" points="219.353,139.481 234.568,127.746 234.568,139.481 			"/>
			<polygon style="fill:#FFFFFF;" points="403.537,191.346 403.537,217.278 118.487,217.278 152.106,191.346 			"/>
			<polygon style="fill:#FFFFFF;" points="234.568,346.938 234.568,359.876 217.793,346.938 			"/>
			<polygon style="fill:#FFFFFF;" points="234.568,152.449 234.568,178.378 168.918,178.378 202.54,152.449 			"/>
		</g>
	</g>
</g>
<g>
</g>
<g>
</g>
<g>
</g>
<g>
</g>
<g>
</g>
<g>
</g>
<g>
</g>
<g>
</g>
<g>
</g>
<g>
</g>
<g>
</g>
<g>
</g>
<g>
</g>
<g>
</g>
<g>
</g>
</svg>
