<?xml version="1.0" encoding="iso-8859-1"?>
<!-- Generator: Adobe Illustrator 19.0.0, SVG Export Plug-In . SVG Version: 6.00 Build 0)  -->
<svg version="1.1" id="Capa_1" xmlns="http://www.w3.org/2000/svg" xmlns:xlink="http://www.w3.org/1999/xlink" x="0px" y="0px"
	 viewBox="0 0 487.622 487.622" style="enable-background:new 0 0 487.622 487.622;" xml:space="preserve">
<g>
	<g>
		<path style="fill:#EED26A;" d="M487.622,243.811C487.622,109.157,378.462,0,243.811,0S0,109.157,0,243.811
			c0,134.65,109.16,243.81,243.811,243.81S487.622,378.461,487.622,243.811z"/>
		<path style="fill:#C4E15E;" d="M487.622,243.811C487.622,109.157,378.462,0,243.811,0S0,109.157,0,243.811
			c0,134.65,109.16,243.81,243.811,243.81S487.622,378.461,487.622,243.811z"/>
		<path style="opacity:0.37;fill:#B5D24F;enable-background:new    ;" d="M464.186,348.211l-81.275-104.4h-139.1l-93.125,33
			l-45.975,50.981l113.824,158.53c8.309,0.856,16.741,1.299,25.276,1.299C341.101,487.622,425.072,430.626,464.186,348.211z"/>
		<g>
			<polygon style="fill:#FFFFFF;" points="104.711,327.792 243.811,243.811 104.711,159.83 			"/>
			<polygon style="fill:#FFFFFF;" points="382.911,243.811 243.811,159.83 243.811,243.811 243.811,327.792 			"/>
		</g>
	</g>
</g>
<g>
</g>
<g>
</g>
<g>
</g>
<g>
</g>
<g>
</g>
<g>
</g>
<g>
</g>
<g>
</g>
<g>
</g>
<g>
</g>
<g>
</g>
<g>
</g>
<g>
</g>
<g>
</g>
<g>
</g>
</svg>
