<?xml version="1.0" encoding="iso-8859-1"?>
<!-- Generator: Adobe Illustrator 19.0.0, SVG Export Plug-In . SVG Version: 6.00 Build 0)  -->
<svg version="1.1" id="Capa_1" xmlns="http://www.w3.org/2000/svg" xmlns:xlink="http://www.w3.org/1999/xlink" x="0px" y="0px"
	 viewBox="0 0 487.622 487.622" style="enable-background:new 0 0 487.622 487.622;" xml:space="preserve">
<g>
	<g>
		<circle style="fill:#CF6F55;" cx="243.811" cy="243.811" r="243.811"/>
		<path style="fill:#C06046;" d="M466.255,343.754l-81.903-132.202l-99.438-51.723L94.691,163.84L265.17,486.68
			C354.987,478.881,430.864,422.403,466.255,343.754z"/>
		<path style="fill:#FFFFFF;" d="M94.692,163.84l29.46,17.009l29.459,17.009v-18.476H288.18c40.619,0,73.666,33.046,73.666,73.666
			c0,40.618-33.047,73.665-73.666,73.665s-73.666-33.047-73.666-73.665c0-14.333,4.115-28.223,11.901-40.166l-26.04-16.976
			c-11.087,17.006-16.947,36.764-16.947,57.142c0,57.759,46.992,104.751,104.752,104.751s104.75-46.992,104.75-104.751
			c0-57.761-46.99-104.751-104.75-104.751H153.611v-18.475l-29.459,17.01L94.692,163.84z"/>
	</g>
</g>
<g>
</g>
<g>
</g>
<g>
</g>
<g>
</g>
<g>
</g>
<g>
</g>
<g>
</g>
<g>
</g>
<g>
</g>
<g>
</g>
<g>
</g>
<g>
</g>
<g>
</g>
<g>
</g>
<g>
</g>
</svg>
