<?xml version="1.0" encoding="iso-8859-1"?>
<!-- Generator: Adobe Illustrator 19.0.0, SVG Export Plug-In . SVG Version: 6.00 Build 0)  -->
<svg version="1.1" id="Capa_1" xmlns="http://www.w3.org/2000/svg" xmlns:xlink="http://www.w3.org/1999/xlink" x="0px" y="0px"
	 viewBox="0 0 487.622 487.622" style="enable-background:new 0 0 487.622 487.622;" xml:space="preserve">
<g>
	<g>
		<circle style="fill:#EED26A;" cx="243.811" cy="243.811" r="243.811"/>
		<circle style="fill:#D97077;" cx="243.811" cy="243.811" r="243.811"/>
		<path style="fill:#CA6168;" d="M479.8,305.28l-76.264-61.47L253.054,127.746v11.735l12.416,12.968l-12.416,25.93l20.065,12.968
			L84.085,217.279l13.727,12.967l-13.727,25.93l14.393,12.968l-14.393,25.932L298.097,481.55
			C386.751,461.386,457.037,392.915,479.8,305.28z"/>
		<g>
			<polygon style="fill:#FFFFFF;" points="286.641,333.97 320.261,308.04 253.054,308.04 253.054,333.97 			"/>
			<polygon style="fill:#FFFFFF;" points="84.085,269.142 84.085,295.074 337.073,295.074 370.693,269.142 			"/>
			<polygon style="fill:#FFFFFF;" points="84.085,256.174 387.504,256.174 403.537,243.81 385.95,230.245 84.085,230.245 			"/>
			<polygon style="fill:#FFFFFF;" points="268.269,139.481 253.054,127.746 253.054,139.481 			"/>
			<polygon style="fill:#FFFFFF;" points="84.085,191.346 84.085,217.278 369.135,217.278 335.516,191.346 			"/>
			<polygon style="fill:#FFFFFF;" points="253.054,346.938 253.054,359.876 269.829,346.938 			"/>
			<polygon style="fill:#FFFFFF;" points="253.054,152.449 253.054,178.378 318.704,178.378 285.082,152.449 			"/>
		</g>
	</g>
</g>
<g>
</g>
<g>
</g>
<g>
</g>
<g>
</g>
<g>
</g>
<g>
</g>
<g>
</g>
<g>
</g>
<g>
</g>
<g>
</g>
<g>
</g>
<g>
</g>
<g>
</g>
<g>
</g>
<g>
</g>
</svg>
