<?xml version="1.0" encoding="iso-8859-1"?>
<!-- Generator: Adobe Illustrator 19.0.0, SVG Export Plug-In . SVG Version: 6.00 Build 0)  -->
<svg version="1.1" id="Capa_1" xmlns="http://www.w3.org/2000/svg" xmlns:xlink="http://www.w3.org/1999/xlink" x="0px" y="0px"
	 viewBox="0 0 487.622 487.622" style="enable-background:new 0 0 487.622 487.622;" xml:space="preserve">
<g>
	<g>
		<circle style="fill:#3C556B;" cx="243.811" cy="243.811" r="243.811"/>
		<path style="fill:#3C556B;" d="M487.444,252.648l-165.34-130.414l-120.46,49.004l-55.887,176.435l164.901,130.668
			C410.1,450.052,483.612,360.223,487.444,252.648z"/>
		<path style="opacity:0.37;fill:#2D465C;enable-background:new    ;" d="M487.444,252.648l-165.34-130.414l-120.46,49.004
			l-55.887,176.435l164.901,130.668C410.1,450.052,483.612,360.223,487.444,252.648z"/>
		<path style="fill:#FFFFFF;" d="M388.172,243.811c0-79.728-64.634-144.361-144.364-144.361
			c-79.725,0-144.358,64.634-144.358,144.361s64.634,144.361,144.358,144.361C323.539,388.172,388.172,323.539,388.172,243.811z
			 M283.063,307.298l-105.152-63.487l105.152-63.487V307.298z"/>
	</g>
</g>
<g>
</g>
<g>
</g>
<g>
</g>
<g>
</g>
<g>
</g>
<g>
</g>
<g>
</g>
<g>
</g>
<g>
</g>
<g>
</g>
<g>
</g>
<g>
</g>
<g>
</g>
<g>
</g>
<g>
</g>
</svg>
