<?xml version="1.0" encoding="iso-8859-1"?>
<!-- Generator: Adobe Illustrator 19.0.0, SVG Export Plug-In . SVG Version: 6.00 Build 0)  -->
<svg version="1.1" id="Capa_1" xmlns="http://www.w3.org/2000/svg" xmlns:xlink="http://www.w3.org/1999/xlink" x="0px" y="0px"
	 viewBox="0 0 487.622 487.622" style="enable-background:new 0 0 487.622 487.622;" xml:space="preserve">
<g>
	<g>
		<circle style="fill:#EED26A;" cx="243.811" cy="243.811" r="243.811"/>
		<circle style="fill:#D97077;" cx="243.811" cy="243.811" r="243.811"/>
		<path style="fill:#CA6168;" d="M462.255,352.176L243.813,90.782l7.735,192.697l-54.633,74.32l-64.888,39.041l79.262,88.617
			c10.641,1.418,21.493,2.164,32.521,2.164C339.532,487.622,422.356,432.448,462.255,352.176z"/>
		<path style="fill:#FFFFFF;" d="M261.45,178.838h33.201l-25.418-44.028l-25.42-44.028l-25.42,44.028l-25.42,44.028h33.201
			c-0.48,120.18-7.973,182.785-94.146,182.785v35.217c30.783,0,55.217-6.6,74.695-20.176c16.289-11.354,28.471-27.143,37.09-48.123
			c8.619,20.979,20.799,36.77,37.09,48.123c19.479,13.576,43.908,20.176,74.691,20.176v-35.217
			C269.42,361.623,261.928,299.018,261.45,178.838z"/>
	</g>
</g>
<g>
</g>
<g>
</g>
<g>
</g>
<g>
</g>
<g>
</g>
<g>
</g>
<g>
</g>
<g>
</g>
<g>
</g>
<g>
</g>
<g>
</g>
<g>
</g>
<g>
</g>
<g>
</g>
<g>
</g>
</svg>
