<?xml version="1.0" encoding="iso-8859-1"?>
<!-- Generator: Adobe Illustrator 19.0.0, SVG Export Plug-In . SVG Version: 6.00 Build 0)  -->
<svg xmlns="http://www.w3.org/2000/svg" xmlns:xlink="http://www.w3.org/1999/xlink" version="1.1" id="Layer_1" x="0px" y="0px" viewBox="0 0 503.532 503.532" style="enable-background:new 0 0 503.532 503.532;" xml:space="preserve">
<g>
	<g>
		<path d="M388.723,137.68h-22.864v-22.488c0-8.672-6.572-16.856-15.252-16.856h-11.948c-8.688,0-16.076,8.184-16.076,16.856v22.488    h-23.26c-8.672,0-16.084,6.948-16.084,15.636v11.956c0,8.672,7.412,15.684,16.084,15.684h23.26v22.424    c0,8.68,7.388,16.916,16.076,16.916h11.948c8.68,0,15.252-8.236,15.252-16.916v-22.424h22.864c8.68,0,16.48-7.012,16.48-15.684    v-11.956C405.204,144.628,397.403,137.68,388.723,137.68z"/>
	</g>
</g>
<g>
	<g>
		<path d="M456.895,46.664C426.803,16.568,386.808,0,344.248,0c-42.552,0-82.56,16.572-112.652,46.664    c-54.644,54.632-61.188,139.424-19.696,201.32l-2.952,2.944c-8.244,8.26-10.4,20.332-6.476,30.604l-29.828,29.832l-3.432-3.424    c-1.508-1.504-3.92-1.544-5.48-0.084L8.564,453.796c-11.356,11.36-11.356,29.844,0,41.204c5.508,5.5,12.812,8.532,20.6,8.532    c7.772,0,15.084-3.032,20.672-8.616l145.872-155.084c1.452-1.552,1.416-3.98-0.084-5.476l-3.436-3.436l29.832-29.82    c3.304,1.256,6.792,1.916,10.276,1.916c7.364,0,14.728-2.8,20.328-8.4l2.916-2.92c26.024,17.52,56.636,26.94,88.708,26.94    c42.56,0,82.556-16.576,112.648-46.664C519.016,209.848,519.016,108.776,456.895,46.664z M429.124,244.184    c-22.672,22.664-52.816,35.152-84.876,35.152c-32.064,0-62.208-12.488-84.872-35.152c-46.8-46.796-46.8-122.944,0-169.744    c22.664-22.676,52.808-35.156,84.88-35.156c32.06,0,62.204,12.48,84.868,35.148C475.928,121.224,475.928,197.372,429.124,244.184z    "/>
	</g>
</g>
<g>
</g>
<g>
</g>
<g>
</g>
<g>
</g>
<g>
</g>
<g>
</g>
<g>
</g>
<g>
</g>
<g>
</g>
<g>
</g>
<g>
</g>
<g>
</g>
<g>
</g>
<g>
</g>
<g>
</g>
</svg>
