<?xml version="1.0" encoding="iso-8859-1"?>
<!-- Generator: Adobe Illustrator 19.0.0, SVG Export Plug-In . SVG Version: 6.00 Build 0)  -->
<svg xmlns="http://www.w3.org/2000/svg" xmlns:xlink="http://www.w3.org/1999/xlink" version="1.1" id="Layer_1" x="0px" y="0px" viewBox="0 0 503.592 503.592" style="enable-background:new 0 0 503.592 503.592;" xml:space="preserve">
<g>
	<g>
		<path d="M424.976,188.842L424.976,188.842c2.172,0,3.868-1.944,3.868-4.112v-15.56h55.328c10.764,0,19.42-8.968,19.42-19.728    v-15.584c0-10.756-8.656-19.764-19.42-19.764H354.124c-7.868,0-14.616,4.9-17.712,11.624c-0.024,0-0.056,0.18-0.056,0.18h-21.752    c-2.172,0-3.796,1.62-3.796,3.796v19.804H118.38l-92.684-19.516c-0.26-0.064-0.532-0.156-0.808-0.156H3.824    c-2.176,0-3.824,1.844-3.824,4.016v70.696c0,2.172,1.648,3.984,3.824,3.984h21.06c0.268,0,0.56-0.056,0.82-0.108l88.392-18.212    v26.188h-25.98c-13.936,0-25.172,10.556-25.172,23.516v125.316c0,14.224,10.616,24.276,24.312,24.276H339.12    c13.328,0,22.836-9.64,22.836-23.34v-31.916l7.344,0.1c0,0,0.516,0.08,0.54,0.08h51.124v3.848c0,2.168,1.936,4.02,4.116,4.02    h23.428v3.872c0,1.804,1.196,3.38,2.944,3.816l47.36,11.812c0.312,0.08,0.632,0.116,0.944,0.116c0.868,0,1.672-0.288,2.36-0.828    c0.96-0.752,1.468-1.9,1.468-3.108V223.398c0-1.168-0.468-2.276-1.376-3.028c-0.892-0.744-2.04-1.032-3.204-0.844l-47.328,8.836    c-1.86,0.344-3.172,1.976-3.172,3.868v3.828h-23.428c-2.18,0-4.116,1.696-4.116,3.876v3.992h-47.204v-3.088    c0-13.248-10.844-24.448-23.624-24.448h-7.844v-27.548H424.976z M310.812,216.39h-98.356v-27.548h98.356V216.39z"/>
	</g>
</g>
<g>
</g>
<g>
</g>
<g>
</g>
<g>
</g>
<g>
</g>
<g>
</g>
<g>
</g>
<g>
</g>
<g>
</g>
<g>
</g>
<g>
</g>
<g>
</g>
<g>
</g>
<g>
</g>
<g>
</g>
</svg>
