<?xml version="1.0" encoding="iso-8859-1"?>
<!-- Generator: Adobe Illustrator 19.0.0, SVG Export Plug-In . SVG Version: 6.00 Build 0)  -->
<svg xmlns="http://www.w3.org/2000/svg" xmlns:xlink="http://www.w3.org/1999/xlink" version="1.1" id="Layer_1" x="0px" y="0px" viewBox="0 0 503.075 503.075" style="enable-background:new 0 0 503.075 503.075;" xml:space="preserve">
<g>
	<g>
		<path d="M270.142,228.607c-2.712-2.732-6.356-4.232-10.216-4.232c-3.856,0-7.484,1.5-10.22,4.236    c-5.636,5.632-5.636,14.804,0.008,20.444c5.436,5.436,14.972,5.44,20.436-0.004C275.778,243.415,275.778,234.243,270.142,228.607z    "/>
	</g>
</g>
<g>
	<g>
		<path d="M245.538,325.539c-1.82-1.824-4.248-2.828-6.828-2.828c-2.588,0-5.02,1-6.84,2.828c-3.764,3.768-3.764,9.904,0,13.668    c3.644,3.648,10.02,3.648,13.66,0c1.832-1.828,2.844-4.248,2.836-6.836C248.366,329.787,247.362,327.363,245.538,325.539z"/>
	</g>
</g>
<g>
	<g>
		<polygon points="126.054,363.647 121.522,377.219 135.094,372.691   "/>
	</g>
</g>
<g>
	<g>
		
			<rect x="129.311" y="286.378" transform="matrix(0.7071 -0.7071 0.7071 0.7071 -168.6297 184.9907)" width="19.356" height="19.344"/>
	</g>
</g>
<g>
	<g>
		<path d="M503.07,115.455c0-1.048-0.416-2.044-1.156-2.784L390.35,1.107c-1.476-1.476-4.088-1.476-5.568,0L288.97,96.935l-0.6-0.6    c-10.584-10.588-27.812-10.588-38.404,0L31.954,314.351c-0.468,0.472-0.796,1.04-0.98,1.636    c-41.72,43.14-41.288,112.172,1.304,154.756c20.836,20.848,48.56,32.332,78.032,32.332c28.868,0,56.036-11.004,76.728-31.02    c0.616-0.188,1.172-0.524,1.632-0.984l218.024-218.012c10.58-10.584,10.58-27.812,0-38.404l-0.592-0.592l95.812-95.824    C502.654,117.499,503.07,116.499,503.07,115.455z M281.29,260.183c-5.716,5.7-14.248,8.836-22.312,8.836    c-5.092,0-11.376-1.26-15.308-3.62v42.516c3.932,1.16,8.924,3.352,12.064,6.492c4.792,4.788,7.904,11.168,7.904,17.968    c0.008,6.792-2.396,13.18-7.204,17.972c-4.776,4.796-11.052,7.448-17.84,7.448c-6.796,0-13.124-2.648-17.924-7.452    c-9.896-9.912-10.8-26.028-0.912-35.936c2.616-2.62,8.176-4.564,8.176-5.824v-28.508l-81.6,82.524l8.432,7.964    c1.924,1.932,2.952,4.724,2.328,7.376c-0.624,2.656-2.468,4.792-5.06,5.664l-40.52,13.536c-0.812,0.268-1.628,0.404-2.468,0.404    c-2.056,0-4.048-0.8-5.548-2.304c-2.116-2.112-2.836-5.228-1.9-8.06l13.532-40.596c0.868-2.592,3.012-4.548,5.664-5.176    c2.648-0.624,5.452,0.164,7.376,2.096l7.976,8.216l88.64-88.38h-41.468l-20.796,20.532l6.852,6.728    c1.476,1.476,2.304,3.416,2.304,5.504c0,2.092-0.828,4.056-2.304,5.532l-24.828,24.796c-1.536,1.544-3.56,2.304-5.572,2.304    c-2.012,0-4.024-0.776-5.564-2.316l-24.82-24.816c-3.08-3.068-3.08-8.056,0-11.136l24.812-24.828c2.956-2.952,8.192-2.96,11.14,0    l6.84,6.844l23.104-22.84c1.476-1.472,3.484-2.044,5.572-2.044h50.844c-2.884-11.804-0.336-21.876,7.664-29.876    c5.712-5.704,13.296-8.968,21.356-8.968c8.076,0,15.652,3.08,21.36,8.78C293.046,229.307,293.046,248.403,281.29,260.183z     M355.806,130.895c-1.056,0-2.052-0.416-2.784-1.152l-23.716-23.72c-1.54-1.536-1.54-4.028,0-5.568l23.716-23.708    c0.736-0.736,1.732-1.152,2.784-1.152c1.048,0,2.048,0.416,2.776,1.152l23.704,23.708c1.536,1.54,1.536,4.032,0,5.568    l-23.704,23.72C357.854,130.479,356.854,130.895,355.806,130.895z M427.218,150.951l-23.708,23.716    c-0.736,0.744-1.736,1.156-2.776,1.156c-1.048,0-2.048-0.416-2.784-1.156l-23.712-23.716c-1.536-1.532-1.536-4.024,0-5.568    l23.692-23.692c0,0,0.016-0.016,0.02-0.024c1.544-1.528,4.024-1.532,5.564,0.004c0.072,0.072,0.14,0.144,0.204,0.216    l23.504,23.496C428.758,146.927,428.758,149.419,427.218,150.951z"/>
	</g>
</g>
<g>
</g>
<g>
</g>
<g>
</g>
<g>
</g>
<g>
</g>
<g>
</g>
<g>
</g>
<g>
</g>
<g>
</g>
<g>
</g>
<g>
</g>
<g>
</g>
<g>
</g>
<g>
</g>
<g>
</g>
</svg>
