<?xml version="1.0" encoding="iso-8859-1"?>
<!-- Generator: Adobe Illustrator 19.0.0, SVG Export Plug-In . SVG Version: 6.00 Build 0)  -->
<svg xmlns="http://www.w3.org/2000/svg" xmlns:xlink="http://www.w3.org/1999/xlink" version="1.1" id="Layer_1" x="0px" y="0px" viewBox="0 0 503.592 503.592" style="enable-background:new 0 0 503.592 503.592;" xml:space="preserve">
<g>
	<g>
		<path d="M428.636,27.852C428.636,12.508,416.144,0,400.792,0H102.66C87.312,0,74.828,12.504,74.828,27.852l0.132,447.892    c0,15.352,12.488,27.848,27.832,27.848h298.136c15.352,0,27.836-12.496,27.836-27.848L428.636,27.852z M232.36,31.472h38.884    c4.36,0,7.868,3.52,7.868,7.868c0,4.344-3.508,7.872-7.868,7.872H232.36c-4.348,0-7.868-3.524-7.868-7.872    S228.012,31.472,232.36,31.472z M202.964,33.912c2.916-2.948,8.184-2.948,11.136,0c1.452,1.46,2.324,3.504,2.324,5.552    c0,2.08-0.872,4.084-2.324,5.544c-1.46,1.496-3.504,2.324-5.584,2.324c-2.084,0-4.096-0.828-5.552-2.324    c-1.452-1.456-2.316-3.464-2.316-5.544C200.648,37.416,201.516,35.372,202.964,33.912z M250.216,488.128    c-12.98,0-23.544-10.564-23.544-23.544c0-12.984,10.568-23.548,23.544-23.548c12.988,0,23.544,10.564,23.544,23.548    S263.208,488.128,250.216,488.128z M94.424,424.904V74.752h314.744v350.152H94.424z"/>
	</g>
</g>
<g>
</g>
<g>
</g>
<g>
</g>
<g>
</g>
<g>
</g>
<g>
</g>
<g>
</g>
<g>
</g>
<g>
</g>
<g>
</g>
<g>
</g>
<g>
</g>
<g>
</g>
<g>
</g>
<g>
</g>
</svg>
