<?xml version="1.0" encoding="iso-8859-1"?>
<!-- Generator: Adobe Illustrator 19.0.0, SVG Export Plug-In . SVG Version: 6.00 Build 0)  -->
<svg xmlns="http://www.w3.org/2000/svg" xmlns:xlink="http://www.w3.org/1999/xlink" version="1.1" id="Layer_1" x="0px" y="0px" viewBox="0 0 503.596 503.596" style="enable-background:new 0 0 503.596 503.596;" xml:space="preserve">
<g>
	<g>
		<path d="M137.48,287.105c-19.632,0-35.608,15.984-35.608,35.616c0,19.64,15.976,35.62,35.608,35.62    c19.644,0,35.62-15.98,35.62-35.62C173.1,303.089,157.128,287.105,137.48,287.105z"/>
	</g>
</g>
<g>
	<g>
		<path d="M468.696,158.697H106.032L427.624,41.733c4.072-1.492,6.164-5.308,4.664-9.384c-1.508-4.08-6.008-7.248-10.1-5.748    L60.472,158.697H34.884C15.596,158.697,0,177.253,0,196.541v248.584c0,19.296,15.596,32.248,34.884,32.248h433.812    c19.296,0,34.9-12.948,34.9-32.248V196.541C503.592,177.249,487.992,158.697,468.696,158.697z M137.48,417.085    c-52.028,0-94.36-42.332-94.36-94.364s42.332-94.36,94.36-94.36c52.032,0,94.364,42.328,94.364,94.36    C231.844,374.753,189.512,417.085,137.48,417.085z M295.076,417.981c0,4.344-3.532,7.872-7.868,7.872    c-4.352,0-7.876-3.528-7.876-7.872v-102.78c0-4.34,3.524-7.868,7.876-7.868c4.336,0,7.868,3.528,7.868,7.868V417.981z     M334.42,417.981c0,4.344-3.532,7.872-7.876,7.872s-7.868-3.528-7.868-7.872v-102.78c0-4.34,3.524-7.868,7.868-7.868    c4.344,0,7.876,3.528,7.876,7.868V417.981z M373.756,417.981c0,4.344-3.524,7.872-7.868,7.872c-4.344,0-7.868-3.528-7.868-7.872    v-102.78c0-4.34,3.524-7.868,7.868-7.868c4.344,0,7.868,3.528,7.868,7.868V417.981z M413.1,417.981    c0,4.344-3.524,7.872-7.868,7.872c-4.344,0-7.868-3.528-7.868-7.872v-102.78c0-4.34,3.524-7.868,7.868-7.868    c4.344,0,7.868,3.528,7.868,7.868V417.981z M452.444,417.981c0,4.344-3.516,7.872-7.868,7.872c-4.344,0-7.868-3.528-7.868-7.872    v-102.78c0-4.34,3.524-7.868,7.868-7.868c4.352,0,7.868,3.528,7.868,7.868V417.981z M452.444,276.721L452.444,276.721    c0,2.18-1.756,3.936-3.928,3.936H283.272c-2.18,0-3.936-1.756-3.936-3.936v-47.208c0-2.176,1.756-3.932,3.936-3.932h165.244    c2.172,0,3.928,1.756,3.928,3.932V276.721z"/>
	</g>
</g>
<g>
</g>
<g>
</g>
<g>
</g>
<g>
</g>
<g>
</g>
<g>
</g>
<g>
</g>
<g>
</g>
<g>
</g>
<g>
</g>
<g>
</g>
<g>
</g>
<g>
</g>
<g>
</g>
<g>
</g>
</svg>
