<?xml version="1.0" encoding="iso-8859-1"?>
<!-- Generator: Adobe Illustrator 19.0.0, SVG Export Plug-In . SVG Version: 6.00 Build 0)  -->
<svg xmlns="http://www.w3.org/2000/svg" xmlns:xlink="http://www.w3.org/1999/xlink" version="1.1" id="Layer_1" x="0px" y="0px" viewBox="0 0 504 504" style="enable-background:new 0 0 504 504;" xml:space="preserve">
<g>
	<g>
		<path d="M350.28,364.128H153.64c-4.352,0-7.868,3.524-7.868,7.868s3.516,7.868,7.868,7.868h196.64c4.344,0,7.872-3.52,7.872-7.868    C358.152,367.652,354.624,364.128,350.28,364.128z"/>
	</g>
</g>
<g>
	<g>
		<path d="M350.28,403.472h-19.72c-4.348,0-7.868,3.524-7.868,7.872c0,4.344,3.52,7.868,7.868,7.868h19.72    c4.344,0,7.872-3.524,7.872-7.868C358.152,406.996,354.624,403.472,350.28,403.472z"/>
	</g>
</g>
<g>
	<g>
		<path d="M294.96,403.468H153.64c-4.352,0-7.868,3.524-7.868,7.872c0,4.344,3.516,7.868,7.868,7.868h141.32    c4.348,0,7.868-3.524,7.868-7.868C302.828,406.992,299.308,403.468,294.96,403.468z"/>
	</g>
</g>
<g>
	<g>
		<path d="M232.224,324.784H153.64c-4.352,0-7.868,3.528-7.868,7.868c0,4.348,3.516,7.868,7.868,7.868h78.584    c4.344,0,7.868-3.52,7.868-7.868C240.092,328.312,236.568,324.784,232.224,324.784z"/>
	</g>
</g>
<g>
	<g>
		<path d="M350.28,324.784h-78.488c-4.348,0-7.872,3.528-7.872,7.868c0,4.348,3.524,7.868,7.872,7.868h78.488    c4.344,0,7.872-3.52,7.872-7.868C358.152,328.312,354.624,324.784,350.28,324.784z"/>
	</g>
</g>
<g>
	<g>
		<path d="M468.22,151.676h-62.78V51.236c0-4.344-3.672-5.788-8.016-5.788H106.472c-4.348,0-7.908,1.444-7.908,5.788v100.44H36.04    c-19.732,0-35.784,15.06-35.784,34.784L0,339.596c0,19.732,16.052,36.332,35.788,36.332h62.776v72.788    c0,4.344,3.46,9.836,7.812,9.836h290.996c4.352,0,8.072-5.492,8.072-9.836v-72.788h62.524c19.732,0,35.78-17.104,35.78-36.828    L504,186.992C504,167.256,487.948,151.676,468.22,151.676z M55.172,263.804c-8.7,0-15.74-7.044-15.74-15.74    c0-8.692,7.036-15.736,15.74-15.736c8.688,0,15.736,7.044,15.736,15.736C70.912,256.756,63.864,263.804,55.172,263.804z     M90.636,255.932c-4.352,0-7.868-3.524-7.868-7.868s3.516-7.868,7.868-7.868c4.34,0,7.868,3.524,7.868,7.868    C98.504,252.412,94.976,255.932,90.636,255.932z M389.7,61.184v133.768H114.3V61.184H389.7z M389.7,442.816H114.3v-141.64h275.4    V442.816z M397.368,257.9h-39.252c-4.348,0-7.872-3.524-7.872-7.868s3.524-7.868,7.872-7.868h39.252    c4.352,0,7.872,3.524,7.872,7.868C405.24,254.376,401.72,257.9,397.368,257.9z M431.628,255.932c-4.348,0-7.868-3.524-7.868-7.868    s3.52-7.868,7.868-7.868c4.34,0,7.872,3.524,7.872,7.868C439.5,252.412,435.968,255.932,431.628,255.932z"/>
	</g>
</g>
<g>
</g>
<g>
</g>
<g>
</g>
<g>
</g>
<g>
</g>
<g>
</g>
<g>
</g>
<g>
</g>
<g>
</g>
<g>
</g>
<g>
</g>
<g>
</g>
<g>
</g>
<g>
</g>
<g>
</g>
</svg>
