<?xml version="1.0" encoding="iso-8859-1"?>
<!-- Generator: Adobe Illustrator 19.0.0, SVG Export Plug-In . SVG Version: 6.00 Build 0)  -->
<svg xmlns="http://www.w3.org/2000/svg" xmlns:xlink="http://www.w3.org/1999/xlink" version="1.1" id="Layer_1" x="0px" y="0px" viewBox="0 0 504.5 504.5" style="enable-background:new 0 0 504.5 504.5;" xml:space="preserve">
<g>
	<g>
		<path d="M414.818,484.948L353.75,376.504l55.244-30.032c1.156-0.628,1.928-1.808,2.032-3.12c0.116-1.324-0.436-2.608-1.476-3.424    L254.678,221.78c-1.236-0.976-2.932-1.124-4.32-0.368c-1.392,0.76-2.188,2.268-2.032,3.84l15.552,193.908    c0.128,1.312,0.908,2.476,2.076,3.088c1.164,0.62,2.564,0.616,3.724-0.016l55.34-30.088l57.728,110.24    c0.48,0.936,1.324,1.636,2.332,1.944c0.376,0.116,0.772,0.172,1.156,0.172c0.644,0,1.296-0.16,1.872-0.48l25.168-13.676    c0.92-0.5,1.608-1.356,1.9-2.368C415.458,486.956,415.338,485.868,414.818,484.948z"/>
	</g>
</g>
<g id="SVGCleanerId_0">
	<g>
		<path d="M252.246,84.732c-77.272,0-140.136,62.864-140.136,140.136S174.974,365,252.246,365    c77.264,0,140.128-62.86,140.128-140.132S329.51,84.732,252.246,84.732z M252.246,349.264c-68.6,0-124.4-55.808-124.4-124.396    c0-68.592,55.804-124.396,124.4-124.396c68.592,0,124.392,55.804,124.392,124.396S320.838,349.264,252.246,349.264z"/>
	</g>
</g>
<g>
	<g>
		<path d="M252.246,84.732c-77.272,0-140.136,62.864-140.136,140.136S174.974,365,252.246,365    c77.264,0,140.128-62.86,140.128-140.132S329.51,84.732,252.246,84.732z M252.246,349.264c-68.6,0-124.4-55.808-124.4-124.396    c0-68.592,55.804-124.396,124.4-124.396c68.592,0,124.392,55.804,124.392,124.396S320.838,349.264,252.246,349.264z"/>
	</g>
</g>
<g>
	<g>
		<path d="M252.246,166.792c-32.028,0-58.08,26.052-58.08,58.076s26.052,58.08,58.08,58.08c32.02,0,58.08-26.056,58.08-58.08    S284.266,166.792,252.246,166.792z M252.246,267.208c-23.344,0-42.34-18.996-42.34-42.34c0-23.348,18.996-42.34,42.34-42.34    c23.348,0,42.34,18.992,42.34,42.34C294.586,248.212,275.594,267.208,252.246,267.208z"/>
	</g>
</g>
<g>
	<g>
		<path d="M252.246,83.508c-77.948,0-141.36,63.416-141.36,141.364c0,77.944,63.412,141.36,141.36,141.36    c77.952,0,141.36-63.416,141.36-141.36C393.606,146.924,330.198,83.508,252.246,83.508z M252.246,350.496    c-69.272,0-125.62-56.356-125.62-125.624s56.348-125.628,125.62-125.628c69.26,0,125.624,56.36,125.624,125.628    S321.506,350.496,252.246,350.496z"/>
	</g>
</g>
<g>
	<g>
		<path d="M252.246,0C128.254,0,27.382,100.88,27.382,224.872s100.872,224.864,224.864,224.864S477.118,348.86,477.118,224.868    S376.238,0,252.246,0z M252.246,433.992c-115.316,0-209.124-93.808-209.124-209.124c0-115.312,93.808-209.132,209.124-209.132    c115.32,0,209.132,93.82,209.132,209.132C461.378,340.184,367.566,433.992,252.246,433.992z"/>
	</g>
</g>
<g>
</g>
<g>
</g>
<g>
</g>
<g>
</g>
<g>
</g>
<g>
</g>
<g>
</g>
<g>
</g>
<g>
</g>
<g>
</g>
<g>
</g>
<g>
</g>
<g>
</g>
<g>
</g>
<g>
</g>
</svg>
