<?xml version="1.0" encoding="iso-8859-1"?>
<!-- Generator: Adobe Illustrator 19.0.0, SVG Export Plug-In . SVG Version: 6.00 Build 0)  -->
<svg xmlns="http://www.w3.org/2000/svg" xmlns:xlink="http://www.w3.org/1999/xlink" version="1.1" id="Layer_1" x="0px" y="0px" viewBox="0 0 503.559 503.559" style="enable-background:new 0 0 503.559 503.559;" xml:space="preserve">
<g>
	<g>
		<path d="M450.195,1.283c-1.416-1.116-3.264-1.544-5.024-1.124l-287.192,66.88c-2.676,0.62-4.556,3.008-4.556,5.748v376.432    c0,3.26,2.644,5.904,5.904,5.904s5.9-2.64,5.9-5.904V136.383l275.4-64.136v310.088c0,3.26,2.648,5.904,5.908,5.904    c3.26,0,5.9-2.64,5.9-5.904V5.903C452.427,4.103,451.599,2.399,450.195,1.283z"/>
	</g>
</g>
<g>
	<g>
		<path d="M395.379,322.347c-31.484,0-57.084,25.612-57.084,57.084c0,31.484,25.6,57.084,57.084,57.084    c31.476,0,57.084-25.6,57.084-57.084C452.467,347.959,426.859,322.347,395.379,322.347z"/>
	</g>
</g>
<g>
	<g>
		<path d="M108.179,389.391c-31.484,0-57.084,25.604-57.084,57.084c0,31.476,25.6,57.084,57.084,57.084    c31.476,0,57.084-25.608,57.084-57.084C165.263,414.999,139.655,389.391,108.179,389.391z"/>
	</g>
</g>
<g>
</g>
<g>
</g>
<g>
</g>
<g>
</g>
<g>
</g>
<g>
</g>
<g>
</g>
<g>
</g>
<g>
</g>
<g>
</g>
<g>
</g>
<g>
</g>
<g>
</g>
<g>
</g>
<g>
</g>
</svg>
