<?xml version="1.0" encoding="iso-8859-1"?>
<!-- Generator: Adobe Illustrator 19.0.0, SVG Export Plug-In . SVG Version: 6.00 Build 0)  -->
<svg xmlns="http://www.w3.org/2000/svg" xmlns:xlink="http://www.w3.org/1999/xlink" version="1.1" id="Layer_1" x="0px" y="0px" viewBox="0 0 503.356 503.356" style="enable-background:new 0 0 503.356 503.356;" xml:space="preserve">
<g>
	<g>
		<path d="M251.684,0c-62.912,0-114.096,51.316-114.096,114.396V180.5c0,4.348,3.52,7.868,7.868,7.868    c4.344,0,7.868-3.52,7.868-7.868v-66.104c0-54.404,44.124-98.66,98.36-98.66c54.236,0,98.352,44.26,98.352,98.66V180.5    c0,4.348,3.528,7.868,7.872,7.868s7.864-3.52,7.864-7.868v-66.104C365.772,51.316,314.596,0,251.684,0z"/>
	</g>
</g>
<g>
	<g>
		<path d="M401.184,169.26c-4.344,0-7.872,3.524-7.872,7.868v7.544h-27.54v15.74h7.868v78.736    c0,67.28-54.672,122.024-121.96,122.024s-121.964-54.744-121.964-122.028v-78.732h7.868v-15.74h-27.54v-7.544    c0-4.344-3.528-7.868-7.872-7.868c-4.348,0-7.868,3.524-7.868,7.868v31.4c0,4.344,3.516,7.868,7.868,7.868    c4.34,0,7.872-3.524,7.872-7.868v-8.116h3.932v78.736c0,62.328,43.276,115.096,98.356,132.04v27.316l-44.92,30.372    c-0.104,0.064-0.068,0.18-0.168,0.256c-0.208,0.172-0.344,0.352-0.512,0.568c-0.152,0.196-0.268,0.392-0.384,0.608    c-0.116,0.216-0.188,0.436-0.264,0.684c-0.084,0.256-0.496,0.512-0.52,0.784c-0.016,0.12-0.44,0.232-0.44,0.356v27.54    c0,2.18,2.5,3.684,4.676,3.684h164.38c2.176,0,4.056-1.504,4.056-3.684v-27.54c0-0.132-0.124-0.244-0.132-0.368    c-0.032-0.264-0.096-0.512-0.184-0.772c-0.072-0.244-0.18-0.468-0.296-0.692c-0.108-0.216-0.256-0.412-0.416-0.6    c-0.164-0.216-0.356-0.396-0.576-0.568c-0.084-0.08-0.224-0.196-0.332-0.256l-45.276-30.372v-27.316    c59.012-16.936,98.356-69.712,98.356-132.04v-78.736h3.932v8.06c0,4.344,3.528,7.868,7.872,7.868c4.348,0,7.868-3.524,7.868-7.868    v-31.34C409.052,172.784,405.532,169.26,401.184,169.26z"/>
	</g>
</g>
<g>
	<g>
		<path d="M366.176,212.216c2.176,0,3.532-1.572,3.532-3.748v-31.34c0-2.168-1.356-4.256-3.532-4.256H137.72    c-2.172,0-4.068,2.088-4.068,4.256v31.34c0,2.172,0,3.936,3.932,3.936v19.484h0.648c-2.172,0-4.584,1.868-4.584,4.04v31.256    c0,2.172,2.408,4.048,4.584,4.048h3.284v8.016c0,60.908,49.252,110.452,110.164,110.452c60.904,0,110.156-49.548,110.156-110.452    v-8.016h3.828c2.18,0,4.04-1.876,4.04-4.048v-31.256c0-2.172,0-3.936-3.932-3.936v-19.776H366.176z"/>
	</g>
</g>
<g>
</g>
<g>
</g>
<g>
</g>
<g>
</g>
<g>
</g>
<g>
</g>
<g>
</g>
<g>
</g>
<g>
</g>
<g>
</g>
<g>
</g>
<g>
</g>
<g>
</g>
<g>
</g>
<g>
</g>
</svg>
