<?xml version="1.0" encoding="iso-8859-1"?>
<!-- Generator: Adobe Illustrator 19.0.0, SVG Export Plug-In . SVG Version: 6.00 Build 0)  -->
<svg xmlns="http://www.w3.org/2000/svg" xmlns:xlink="http://www.w3.org/1999/xlink" version="1.1" id="Layer_1" x="0px" y="0px" viewBox="0 0 503.532 503.532" style="enable-background:new 0 0 503.532 503.532;" xml:space="preserve">
<g>
	<g>
		<path d="M456.895,46.66C426.803,16.564,386.808,0,344.248,0c-42.552,0-82.56,16.568-112.652,46.66    c-54.644,54.64-61.188,139.424-19.696,201.324l-2.952,2.944c-8.244,8.256-10.4,20.328-6.476,30.608l-29.828,29.824l-3.432-3.424    c-1.508-1.508-3.92-1.548-5.48-0.084L8.564,453.796c-11.356,11.36-11.356,29.84,0,41.196c5.508,5.504,12.812,8.54,20.6,8.54    c7.772,0,15.084-3.036,20.672-8.624l145.872-155.084c1.452-1.552,1.416-3.98-0.084-5.48l-3.436-3.432l29.832-29.82    c3.304,1.256,6.792,1.916,10.276,1.916c7.364,0,14.728-2.792,20.328-8.4l2.916-2.92c26.024,17.52,56.636,26.94,88.708,26.94    c42.56,0,82.556-16.576,112.648-46.664C519.016,209.844,519.016,108.772,456.895,46.66z M429.124,244.18    c-22.672,22.66-52.816,35.152-84.876,35.152c-32.064,0-62.208-12.492-84.872-35.152c-46.8-46.792-46.8-122.944,0-169.744    c22.664-22.676,52.808-35.152,84.88-35.152c32.06,0,62.204,12.476,84.868,35.144C475.928,121.22,475.928,197.372,429.124,244.18z"/>
	</g>
</g>
<g>
</g>
<g>
</g>
<g>
</g>
<g>
</g>
<g>
</g>
<g>
</g>
<g>
</g>
<g>
</g>
<g>
</g>
<g>
</g>
<g>
</g>
<g>
</g>
<g>
</g>
<g>
</g>
<g>
</g>
</svg>
