<?xml version="1.0" encoding="iso-8859-1"?>
<!-- Generator: Adobe Illustrator 19.0.0, SVG Export Plug-In . SVG Version: 6.00 Build 0)  -->
<svg xmlns="http://www.w3.org/2000/svg" xmlns:xlink="http://www.w3.org/1999/xlink" version="1.1" id="Layer_1" x="0px" y="0px" viewBox="0 0 503.596 503.596" style="enable-background:new 0 0 503.596 503.596;" xml:space="preserve">
<g>
	<g>
		<path d="M472.276,173.598l0.008-3.596c0-30.18-25.1-55.904-54.86-55.904H54.744C24.488,114.098,0,139.15,0,169.418v165.696    c0,30.26,24.712,54.384,54.98,54.384h362.568c30.272,0,54.572-24.244,54.572-54.516v-4.16    c15.736-0.056,31.476-14.112,31.476-31.384v-94.476C503.596,187.698,489.536,173.646,472.276,173.598z M157.38,314.746    c0,6.52-5.28,11.804-11.8,11.804h-15.74c-6.524,0-11.804-5.284-11.804-11.804V188.854c0-6.52,5.28-11.804,11.804-11.804h15.74    c6.52,0,11.8,5.284,11.8,11.804V314.746z"/>
	</g>
</g>
<g>
</g>
<g>
</g>
<g>
</g>
<g>
</g>
<g>
</g>
<g>
</g>
<g>
</g>
<g>
</g>
<g>
</g>
<g>
</g>
<g>
</g>
<g>
</g>
<g>
</g>
<g>
</g>
<g>
</g>
</svg>
