<?xml version="1.0" encoding="iso-8859-1"?>
<!-- Generator: Adobe Illustrator 19.0.0, SVG Export Plug-In . SVG Version: 6.00 Build 0)  -->
<svg xmlns="http://www.w3.org/2000/svg" xmlns:xlink="http://www.w3.org/1999/xlink" version="1.1" id="Layer_1" x="0px" y="0px" viewBox="0 0 503.392 503.392" style="enable-background:new 0 0 503.392 503.392;" xml:space="preserve">
<g>
	<g>
		<path d="M460.308,118.938v-62.58c0-16.436-12.14-28.824-28.664-28.824c-3.476,0-6.86,0.356-10.36,1.456L232.052,90.302h-125.28    c-24.456,0-46.052,11.8-58.784,31.472H32.304C14.68,121.774,0,136.406,0,154.042v65.456c0,17.628,14.68,32.108,32.304,32.108    h15.364c12.676,19.668,34.424,31.472,59.104,31.472h7.328v163.956c0,15.996,13.628,28.824,29.628,28.824h28.524    c16,0,28.404-12.828,28.404-28.824v-89.2h7.56c15.664,0,27.848-12.5,27.848-28.16v-44.812l185.132,59.708    c3.476,1.084,7.28,1.464,10.756,1.464h0.008c7.82,0,14.756-2.62,20.08-7.7c5.54-5.288,8.272-12.548,8.272-20.768v-62.952    c27.54-12.316,43.08-38.92,43.08-67.828C503.388,157.814,487.848,131.27,460.308,118.938z M184.764,235.87H87.36    c-4.348,0-7.868-3.524-7.868-7.868c0-4.352,3.52-7.872,7.868-7.872h97.404c4.352,0,7.868,3.52,7.868,7.872    C192.632,232.346,189.116,235.87,184.764,235.87z M184.764,196.526H87.36c-4.348,0-7.868-3.528-7.868-7.868    c0-4.348,3.52-7.868,7.868-7.868h97.404c4.352,0,7.868,3.52,7.868,7.868C192.632,192.998,189.116,196.526,184.764,196.526z     M184.764,157.182H87.36c-4.348,0-7.868-3.52-7.868-7.868c0-4.34,3.52-7.868,7.868-7.868h97.404c4.352,0,7.868,3.528,7.868,7.868    C192.632,153.662,189.116,157.182,184.764,157.182z"/>
	</g>
</g>
<g>
</g>
<g>
</g>
<g>
</g>
<g>
</g>
<g>
</g>
<g>
</g>
<g>
</g>
<g>
</g>
<g>
</g>
<g>
</g>
<g>
</g>
<g>
</g>
<g>
</g>
<g>
</g>
<g>
</g>
</svg>
