<?xml version="1.0" encoding="iso-8859-1"?>
<!-- Generator: Adobe Illustrator 19.0.0, SVG Export Plug-In . SVG Version: 6.00 Build 0)  -->
<svg xmlns="http://www.w3.org/2000/svg" xmlns:xlink="http://www.w3.org/1999/xlink" version="1.1" id="Layer_1" x="0px" y="0px" viewBox="0 0 503.596 503.596" style="enable-background:new 0 0 503.596 503.596;" xml:space="preserve">
<g>
	<g>
		<path d="M472.276,173.56l0.008-3.58c0-30.18-25.1-55.884-54.86-55.884H54.744C24.488,114.096,0,139.104,0,169.376v165.696    C0,365.336,24.484,389.5,54.744,389.5h362.804c30.272,0,54.572-24.296,54.572-54.564v-4.164    c15.736-0.056,31.476-14.108,31.476-31.376v-94.468C503.596,187.664,489.536,173.608,472.276,173.56z M157.38,314.748    c0,6.524-5.28,11.804-11.8,11.804h-15.74c-6.524,0-11.804-5.28-11.804-11.804V188.852c0-6.516,5.28-11.796,11.804-11.796h15.74    c6.52,0,11.8,5.28,11.8,11.796V314.748z M263.604,314.748c0,6.524-5.28,11.804-11.804,11.804h-15.736    c-6.524,0-11.804-5.28-11.804-11.804V188.852c0-6.516,5.28-11.796,11.804-11.796H251.8c6.524,0,11.804,5.28,11.804,11.796V314.748    z"/>
	</g>
</g>
<g>
</g>
<g>
</g>
<g>
</g>
<g>
</g>
<g>
</g>
<g>
</g>
<g>
</g>
<g>
</g>
<g>
</g>
<g>
</g>
<g>
</g>
<g>
</g>
<g>
</g>
<g>
</g>
<g>
</g>
</svg>
