<?xml version="1.0" encoding="iso-8859-1"?>
<!-- Generator: Adobe Illustrator 19.0.0, SVG Export Plug-In . SVG Version: 6.00 Build 0)  -->
<svg xmlns="http://www.w3.org/2000/svg" xmlns:xlink="http://www.w3.org/1999/xlink" version="1.1" id="Layer_1" x="0px" y="0px" viewBox="0 0 503.588 503.588" style="enable-background:new 0 0 503.588 503.588;" xml:space="preserve">
<g>
	<g>
		<path d="M472.144,173.548l-0.048-3.572c0-30.188-25.156-55.884-54.92-55.884H54.5c-30.26,0-54.5,25.004-54.5,55.268v165.7    c0,30.264,24.244,54.436,54.5,54.436h362.808c30.264,0,54.804-24.304,54.804-54.564v-4.176    c15.736-0.048,31.476-14.096,31.476-31.372V204.92C503.588,187.644,489.4,173.592,472.144,173.548z M456.376,337.136    c0,20.552-18.2,36.94-39.052,36.94l-41.764-0.168l-243.892-244.08h285.504c21.236,0,39.172,18.492,39.172,40.244l0.032,3.556    V337.136z"/>
	</g>
</g>
<g>
</g>
<g>
</g>
<g>
</g>
<g>
</g>
<g>
</g>
<g>
</g>
<g>
</g>
<g>
</g>
<g>
</g>
<g>
</g>
<g>
</g>
<g>
</g>
<g>
</g>
<g>
</g>
<g>
</g>
</svg>
