<?xml version="1.0" encoding="iso-8859-1"?>
<!-- Generator: Adobe Illustrator 19.0.0, SVG Export Plug-In . SVG Version: 6.00 Build 0)  -->
<svg xmlns="http://www.w3.org/2000/svg" xmlns:xlink="http://www.w3.org/1999/xlink" version="1.1" id="Layer_1" x="0px" y="0px" viewBox="0 0 503.1 503.1" style="enable-background:new 0 0 503.1 503.1;" xml:space="preserve">
<g>
	<g>
		<path d="M439.42,101.707c-13.008-20.888-78.852-31.196-91.584-26.58c-7.66,2.78-14.56,6.536-21.868,10.512    c-17.492,9.512-37.312,20.3-74.42,20.3c-37.088,0-56.916-10.784-74.408-20.296c-7.308-3.976-14.216-7.736-21.88-10.516    c-12.748-4.632-78.576,5.688-91.58,26.58c-53.1,85.252-83.408,280.196-49.136,316.048c7.116,7.44,15.768,11.312,25.224,11.312    c1.136,0,2.276-0.052,3.44-0.168c18.68-1.812,38.712-18.044,56.46-45.788l4.904-8.096c31.52-52.232,34.104-56.5,146.976-56.5    c112.892,0,115.46,4.268,146.988,56.504l4.932,8.168c17.704,27.664,37.744,43.896,56.42,45.708    c10.82,1.056,20.704-2.804,28.668-11.14C522.832,381.903,492.512,186.959,439.42,101.707z M358.032,113.851h23.708    c2.168,0,3.928,1.8,3.928,3.976l0.008,23.544c0,1.344-0.684,2.604-1.816,3.328l-11.856,7.588c-0.64,0.416-1.384,0.628-2.116,0.628    c-0.744,0-1.476-0.208-2.12-0.62l-11.988-7.584c-1.128-0.724-1.936-1.972-1.936-3.316v-23.528h-0.004    C353.84,115.695,355.852,113.851,358.032,113.851z M285.6,159.403c2.948-2.952,8.22-2.952,11.172,0    c1.448,1.456,2.28,3.5,2.28,5.552c0,2.084-0.832,4.128-2.28,5.584c-1.5,1.456-3.508,2.284-5.584,2.284    c-2.052,0-4.092-0.828-5.548-2.284c-1.5-1.496-2.32-3.5-2.32-5.584C283.316,162.903,284.136,160.859,285.6,159.403z     M206.672,159.403c2.948-2.952,8.184-2.952,11.132,0c1.492,1.456,2.324,3.5,2.324,5.552c0,2.084-0.832,4.088-2.324,5.54    c-1.456,1.5-3.504,2.328-5.548,2.328c-2.084,0-4.096-0.828-5.584-2.328c-1.46-1.452-2.28-3.456-2.28-5.54    C204.392,162.903,205.212,160.859,206.672,159.403z M121.884,196.434c-17.352,0-31.472-14.12-31.472-31.472    c0-17.36,14.12-31.476,31.472-31.476c17.36,0,31.476,14.112,31.476,31.476C153.36,182.311,139.244,196.434,121.884,196.434z     M235.816,251.507c0,2.168-1.588,3.98-3.764,3.98h-23.776v23.84c0,2.176-1.388,3.7-3.564,3.7h-23.804    c-2.172,0-4.104-1.524-4.104-3.7v-23.84h-23.416c-2.176,0-4.12-1.808-4.12-3.98v-23.668c0-2.168,1.944-3.828,4.12-3.828h23.416    v-23.652c0-2.168,1.932-3.892,4.104-3.892h23.804c2.176,0,3.564,1.72,3.564,3.892v23.652h23.776c2.176,0,3.764,1.656,3.764,3.828    V251.507z M251.548,184.759c-10.916,0-19.804-8.884-19.804-19.8c0-10.916,8.888-19.8,19.804-19.8    c10.928,0,19.804,8.884,19.804,19.8C271.352,175.879,262.476,184.759,251.548,184.759z M310.32,271.727    c-17.356,0-31.476-14.116-31.476-31.476c0-17.36,14.12-31.476,31.476-31.476c17.352,0,31.472,14.116,31.472,31.476    C341.792,257.611,327.672,271.727,310.32,271.727z M346.308,180.735h-23.524c-2.172,0-4.352-1.744-4.352-3.916v-23.712    c0-2.176,2.18-3.848,4.352-3.848h23.524c1.348,0,2.584,0.64,3.32,1.768l7.584,11.832c0.836,1.296,0.836,2.94,0,4.24l-7.584,11.836    C348.896,180.059,347.656,180.735,346.308,180.735z M381.744,216.143h-23.712c-2.18,0-4.192-1.916-4.192-4.084v-23.524    c0-1.344,0.808-2.592,1.936-3.316l11.924-7.588c1.284-0.824,2.98-0.824,4.268,0l11.696,7.588c1.124,0.72,1.648,1.968,1.648,3.316    v23.524h0.004C385.316,214.226,383.912,216.143,381.744,216.143z M420.724,176.819c0,2.172-1.564,3.916-3.744,3.916h-23.52    c-1.352,0-2.596-0.672-3.324-1.804l-7.584-11.852c-0.824-1.296-0.824-2.948,0-4.244l7.584-11.808    c0.728-1.128,1.972-1.764,3.324-1.764h23.52c2.18,0,3.744,1.672,3.744,3.848V176.819z"/>
	</g>
</g>
<g>
</g>
<g>
</g>
<g>
</g>
<g>
</g>
<g>
</g>
<g>
</g>
<g>
</g>
<g>
</g>
<g>
</g>
<g>
</g>
<g>
</g>
<g>
</g>
<g>
</g>
<g>
</g>
<g>
</g>
</svg>
