<?xml version="1.0" encoding="iso-8859-1"?>
<!-- Generator: Adobe Illustrator 19.0.0, SVG Export Plug-In . SVG Version: 6.00 Build 0)  -->
<svg xmlns="http://www.w3.org/2000/svg" xmlns:xlink="http://www.w3.org/1999/xlink" version="1.1" id="Layer_1" x="0px" y="0px" viewBox="0 0 503.592 503.592" style="enable-background:new 0 0 503.592 503.592;" xml:space="preserve">
<g>
	<g>
		<path d="M472.272,173.538l0.008-3.56c0-30.196-25.1-55.884-54.86-55.884H54.74C24.48,114.094,0,139.098,0,169.358v165.7    c0,30.264,24.48,54.44,54.74,54.44h362.804c30.272,0,54.572-24.308,54.572-54.568v-4.172    c15.736-0.048,31.476-14.096,31.476-31.364v-94.476C503.592,187.65,489.532,173.59,472.272,173.538z M157.38,314.75h-0.004    c0,6.508-5.284,11.8-11.804,11.8h-15.736c-6.52,0-11.804-5.292-11.804-11.8V188.846c0-6.512,5.28-11.8,11.804-11.8h15.74    c6.516,0,11.804,5.288,11.804,11.8V314.75z M263.6,314.75c0,6.508-5.28,11.8-11.804,11.8H236.06c-6.52,0-11.804-5.292-11.804-11.8    V188.846c0-6.512,5.28-11.8,11.804-11.8h15.736c6.52,0,11.804,5.288,11.804,11.8V314.75z M369.828,314.75    c0,6.508-5.28,11.8-11.804,11.8h-15.736c-6.524,0-11.804-5.292-11.804-11.8V188.846c0-6.512,5.28-11.8,11.804-11.8h15.736    c6.524,0,11.804,5.288,11.804,11.8V314.75z"/>
	</g>
</g>
<g>
</g>
<g>
</g>
<g>
</g>
<g>
</g>
<g>
</g>
<g>
</g>
<g>
</g>
<g>
</g>
<g>
</g>
<g>
</g>
<g>
</g>
<g>
</g>
<g>
</g>
<g>
</g>
<g>
</g>
</svg>
