<?xml version="1.0" encoding="iso-8859-1"?>
<!-- Generator: Adobe Illustrator 19.0.0, SVG Export Plug-In . SVG Version: 6.00 Build 0)  -->
<svg xmlns="http://www.w3.org/2000/svg" xmlns:xlink="http://www.w3.org/1999/xlink" version="1.1" id="Layer_1" x="0px" y="0px" viewBox="0 0 499.66 499.66" style="enable-background:new 0 0 499.66 499.66;" xml:space="preserve">
<g>
	<g>
		<path d="M92.148,200.263c6.244-5.496,10.144-13.268,10.144-21.336v-40.908c0-15.748-11.084-27.856-26.832-27.856H31.816    C16.068,110.163,0,122.271,0,138.019v40.912c0,8.068,3.9,15.836,10.148,21.336c0.852,0.752,1.656,1.832,1.656,2.956v104.36    c0,1.132-0.804,2.208-1.656,2.956C3.9,316.027,0,323.795,0,331.863v40.92c0,15.748,16.072,32.456,31.816,32.456H75.46    c15.752,0,26.832-16.708,26.832-32.456v-40.924c0-8.068-3.904-15.836-10.144-21.32c-0.856-0.752-1.656-1.828-1.656-2.96v-104.36    C90.492,202.095,91.292,201.011,92.148,200.263z"/>
	</g>
</g>
<g>
	<g>
		<path d="M279.336,322.619v82.62H463.68c21.064,0,35.976-20.776,35.976-41.832v-40.788H279.336z"/>
	</g>
</g>
<g>
	<g>
		<path d="M464.244,160.483v-62.12c0-4.344,0.232-3.932-4.108-3.932H146.044c-4.352,0-8.34-0.412-8.34,3.932v62.944h-19.672v17.624    c0,10.724-3.932,21.076-11.804,29.16v94.616c7.872,8.072,11.804,18.424,11.804,29.152v40.92c0,11-2.336,24.588-8.996,32.456    h154.568v-91.14c0-4.348,5.3-7.216,9.648-7.216H499.66v-108.48C499.656,178.807,483.916,162.631,464.244,160.483z M169.18,373.699    c0,2.172-1.76,3.932-3.936,3.932h-15.736c-2.18,0-3.936-1.76-3.936-3.932v-15.74c0-2.172,1.756-3.932,3.936-3.932h15.736    c2.176,0,3.936,1.76,3.936,3.932V373.699z M169.18,346.223c0,2.172-1.76,3.932-3.936,3.932h-15.736    c-2.18,0-3.936-1.76-3.936-3.932v-15.74c0-2.172,1.756-3.932,3.936-3.932h15.736c2.176,0,3.936,1.76,3.936,3.932V346.223z     M169.18,318.683c0,2.172-1.76,3.936-3.936,3.936h-15.736c-2.18,0-3.936-1.764-3.936-3.936v-15.736    c0-2.172,1.756-3.932,3.936-3.932h15.736c2.176,0,3.936,1.76,3.936,3.932V318.683z M196.72,373.699    c0,2.172-1.76,3.932-3.936,3.932h-15.736c-2.176,0-3.936-1.76-3.936-3.932v-15.74c0-2.172,1.76-3.932,3.936-3.932h15.736    c2.176,0,3.936,1.76,3.936,3.932V373.699z M196.72,346.223c0,2.172-1.76,3.932-3.936,3.932h-15.736    c-2.176,0-3.936-1.76-3.936-3.932v-15.74c0-2.172,1.76-3.932,3.936-3.932h15.736c2.176,0,3.936,1.76,3.936,3.932V346.223z     M196.72,318.683c0,2.172-1.76,3.936-3.936,3.936h-15.736c-2.176,0-3.936-1.764-3.936-3.936v-15.736    c0-2.172,1.76-3.932,3.936-3.932h15.736c2.176,0,3.936,1.76,3.936,3.932V318.683z M224.192,373.699    c0,2.172-1.76,3.932-3.932,3.932h-15.74c-2.176,0-3.932-1.76-3.932-3.932v-15.74c0-2.172,1.756-3.932,3.932-3.932h15.74    c2.172,0,3.932,1.76,3.932,3.932V373.699z M224.192,346.223c0,2.172-1.76,3.932-3.932,3.932h-15.74    c-2.176,0-3.932-1.76-3.932-3.932v-15.74c0-2.172,1.756-3.932,3.932-3.932h15.74c2.172,0,3.932,1.76,3.932,3.932V346.223z     M224.192,318.683c0,2.172-1.76,3.936-3.932,3.936h-15.74c-2.176,0-3.932-1.764-3.932-3.936v-15.736    c0-2.172,1.756-3.932,3.932-3.932h15.74c2.172,0,3.932,1.76,3.932,3.932V318.683z M228.124,275.407    c0,2.172-1.756,3.936-3.932,3.936h-74.684c-2.18,0-3.936-1.76-3.936-3.936v-31.472c0-2.176,1.756-3.936,3.936-3.936h74.684    c2.176,0,3.932,1.76,3.932,3.936V275.407z M153.436,216.391V110.163h295.076v106.228H153.436z M420.968,275.407    c0,2.172-1.752,3.936-3.932,3.936h-55.08c-2.172,0-3.932-1.76-3.932-3.936v-15.74c0-2.172,1.76-3.932,3.932-3.932h55.08    c2.18,0,3.932,1.76,3.932,3.932V275.407z M460.312,275.407c0,2.172-1.756,3.936-3.932,3.936h-19.672    c-2.168,0-3.932-1.76-3.932-3.936v-15.74c0-2.172,1.764-3.932,3.932-3.932h19.672c2.176,0,3.932,1.76,3.932,3.932V275.407z"/>
	</g>
</g>
<g>
	<g>
		<path d="M401.936,141.639H203.744c-4.34,0-7.868,3.52-7.868,7.868c0,4.344,3.528,7.868,7.868,7.868h198.192    c4.348,0,7.872-3.524,7.872-7.868C409.808,145.159,406.284,141.639,401.936,141.639z"/>
	</g>
</g>
<g>
	<g>
		<path d="M340.132,173.111H203.744c-4.34,0-7.868,3.52-7.868,7.868c0,4.344,3.528,7.872,7.868,7.872h136.392    c4.352,0,7.876-3.528,7.876-7.872C348.008,176.631,344.484,173.111,340.132,173.111z"/>
	</g>
</g>
<g>
	<g>
		<path d="M401.932,173.111h-32.636c-4.34,0-7.868,3.52-7.868,7.868c0,4.344,3.528,7.872,7.868,7.872h32.636    c4.348,0,7.872-3.528,7.872-7.872C409.804,176.631,406.28,173.111,401.932,173.111z"/>
	</g>
</g>
<g>
</g>
<g>
</g>
<g>
</g>
<g>
</g>
<g>
</g>
<g>
</g>
<g>
</g>
<g>
</g>
<g>
</g>
<g>
</g>
<g>
</g>
<g>
</g>
<g>
</g>
<g>
</g>
<g>
</g>
</svg>
