<?xml version="1.0" encoding="iso-8859-1"?>
<!-- Generator: Adobe Illustrator 19.0.0, SVG Export Plug-In . SVG Version: 6.00 Build 0)  -->
<svg xmlns="http://www.w3.org/2000/svg" xmlns:xlink="http://www.w3.org/1999/xlink" version="1.1" id="Layer_1" x="0px" y="0px" viewBox="0 0 503.82 503.82" style="enable-background:new 0 0 503.82 503.82;" xml:space="preserve">
<g>
	<g>
		<path d="M503.6,127.714c0-23.796-19.368-44.04-43.168-44.04H223.988c-0.932-7.868-8.332-15.744-17.392-15.744h-11.88    c-9.068,0-16.46,7.876-17.396,15.744h-20.156c-1.588-11.804-11.168-19.672-22.732-19.672H89.98    c-11.556,0-21.132,7.868-22.724,19.672H43.16C19.364,83.674,0,103.918,0,127.722L0.216,340.01    c0,23.796,19.364,42.672,43.16,42.672h74.748c-17.52-27.54-27.764-56-27.764-89.484c0-88.984,72.412-160.928,161.42-160.928    c88.988,0,161.392,71.712,161.392,160.696c0,33.484-10.248,62.18-27.756,89.72h75.244c23.8,0,43.16-18.876,43.16-42.672    L503.6,127.714z M373.972,144.51c-6.428,0-11.66-5.236-11.66-11.672c0-6.428,5.232-11.664,11.66-11.664    c6.432,0,11.664,5.236,11.664,11.664C385.636,139.278,380.404,144.51,373.972,144.51z M432.796,187.706    c-19.48,0-35.328-15.852-35.328-35.328c0-19.476,15.848-35.32,35.328-35.32c19.48,0,35.328,15.844,35.328,35.32    C468.124,171.854,452.276,187.706,432.796,187.706z"/>
	</g>
</g>
<g>
	<g>
		<path d="M251.768,246.974c-26.012,0-47.172,21.164-47.172,47.164c0,26.008,21.164,47.172,47.172,47.172    c26,0,47.16-21.164,47.16-47.172C298.928,268.138,277.772,246.974,251.768,246.974z"/>
	</g>
</g>
<g>
	<g>
		<path d="M251.776,148.474c-80.328,0-145.684,65.344-145.684,145.656c0,80.328,65.356,145.688,145.684,145.688    c80.316,0,145.652-65.36,145.652-145.688C397.428,213.818,332.092,148.474,251.776,148.474z M251.776,423.666    c-71.532,0-129.54-58.008-129.54-129.54c0-71.5,58.008-129.508,129.54-129.508c71.552,0,129.512,58.008,129.512,129.508    C381.288,365.662,323.324,423.666,251.776,423.666z"/>
	</g>
</g>
<g>
</g>
<g>
</g>
<g>
</g>
<g>
</g>
<g>
</g>
<g>
</g>
<g>
</g>
<g>
</g>
<g>
</g>
<g>
</g>
<g>
</g>
<g>
</g>
<g>
</g>
<g>
</g>
<g>
</g>
</svg>
