<?xml version="1.0" encoding="iso-8859-1"?>
<!-- Generator: Adobe Illustrator 19.0.0, SVG Export Plug-In . SVG Version: 6.00 Build 0)  -->
<svg xmlns="http://www.w3.org/2000/svg" xmlns:xlink="http://www.w3.org/1999/xlink" version="1.1" id="Layer_1" x="0px" y="0px" viewBox="0 0 503.592 503.592" style="enable-background:new 0 0 503.592 503.592;" xml:space="preserve">
<g>
	<g>
		<path d="M476.092,53.116H27.5C12.316,53.116,0,65.428,0,80.624v342.344c0,15.192,12.316,27.508,27.5,27.508h448.592    c15.188,0,27.5-12.316,27.5-27.508V80.624C503.592,65.428,491.28,53.116,476.092,53.116z M114.1,186.252v192.164    c0,6.304-5.408,13.048-11.708,13.048h-0.628c-6.296,0-11.268-6.744-11.268-13.048V186.208c-7.872-4.128-11.96-11.844-11.96-20.492    c0-8.58,4.088-16.396,11.96-20.584V125.92c0-6.3,4.972-9.86,11.268-9.86h0.628c6.304,0,11.708,3.56,11.708,9.86v19.296    c7.868,4.156,11.956,11.916,11.956,20.496C126.052,174.456,121.968,182.164,114.1,186.252z M188.848,324.284v54.132    c0,6.304-5.404,13.048-11.708,13.048h-0.62c-6.3,0-11.276-6.744-11.276-13.048v-54.2c-7.868-4.152-11.96-11.944-11.96-20.476    c0-8.572,4.092-16.384,11.96-20.58V125.92c0-6.3,4.976-9.86,11.276-9.86h0.62c6.304,0,11.708,3.56,11.708,9.86v157.248    c7.868,4.188,11.956,12,11.956,20.572C200.804,312.5,196.716,320.208,188.848,324.284z M263.6,272.744v105.672    c0,6.304-5.408,13.048-11.696,13.048h-0.632c-6.292,0-11.276-6.744-11.276-13.048V272.744    c-7.868-4.184-11.956-11.992-11.956-20.58c0-8.576,4.088-16.396,11.956-20.572V125.92c0-6.3,4.984-9.86,11.276-9.86h0.632    c6.292,0,11.696,3.56,11.696,9.86v105.676c7.868,4.176,11.96,11.996,11.96,20.572C275.56,260.828,271.468,268.616,263.6,272.744z     M338.352,370.976v7.44c0,6.304-5.4,13.048-11.696,13.048h-0.624c-6.296,0-11.28-6.744-11.28-13.048v-7.44    c-7.876-4.184-12.024-11.992-12.024-20.58c0-8.58,4.58-16.392,11.928-20.576l-0.032-203.128c0-6.288,5.108-10.632,11.408-10.632    h0.624c6.296,0,11.696,3.56,11.696,9.86v203.904c7.868,4.192,11.96,12.004,11.96,20.576    C350.312,358.984,346.216,366.792,338.352,370.976z M413.1,209.764v168.652c0,6.304-5.4,13.048-11.688,13.048h-0.632    c-6.288,0-11.28-6.744-11.28-13.048V209.868c-7.868-4.18-11.96-11.992-11.96-20.584c0-8.58,4.092-16.392,11.96-20.58V125.92    c0-6.3,4.992-9.86,11.28-9.86h0.632c6.288,0,11.688,3.56,11.688,9.86v42.78c7.868,4.188,11.96,12,11.96,20.58    C425.06,197.936,420.968,205.656,413.1,209.764z"/>
	</g>
</g>
<g>
</g>
<g>
</g>
<g>
</g>
<g>
</g>
<g>
</g>
<g>
</g>
<g>
</g>
<g>
</g>
<g>
</g>
<g>
</g>
<g>
</g>
<g>
</g>
<g>
</g>
<g>
</g>
<g>
</g>
</svg>
